<svg xmlns="http://www.w3.org/2000/svg" viewBox="0 0 512 512">
  <rect width="512" height="512" fill="#111827"/>
  <circle cx="256" cy="256" r="210" fill="#1d4ed8"/>
  <circle cx="256" cy="256" r="182" fill="#0f172a"/>
  <path d="M130 178h86c15 0 26 6 32 17l16 32h64c52 0 95 43 95 95s-43 95-95 95c-45 0-83-31-92-73H204c-9 42-47 73-92 73-52 0-95-43-95-95s43-95 95-95c17 0 33 4 46 11l23-35h-51v-25Zm-18 84c-33 0-60 27-60 60s27 60 60 60 60-27 60-60-27-60-60-60Zm216 0c-33 0-60 27-60 60s27 60 60 60 60-27 60-60-27-60-60-60Z" fill="#60a5fa"/>
  <circle cx="112" cy="322" r="28" fill="#fff"/>
  <circle cx="328" cy="322" r="28" fill="#fff"/>
  <path d="M210 202h52l48 98h-31l-17-34h-75l22-35-16-29h-43l17-27h43Z" fill="#f97316"/>
</svg>
