<svg xmlns="http://www.w3.org/2000/svg" viewBox="0 0 512 512">
  <rect width="512" height="512" rx="120" fill="#0f172a"/>
  <path d="M112 156h86c17 0 28 6 34 18l18 36h76c57 0 104 46 104 104s-47 104-104 104c-50 0-91-35-101-82H196c-10 47-51 82-101 82-57 0-104-46-104-104s47-104 104-104c19 0 36 5 51 13l25-39h-59v-28Zm-17 90c-38 0-68 30-68 68s30 68 68 68 68-30 68-68-30-68-68-68Zm231 0c-38 0-68 30-68 68s30 68 68 68 68-30 68-68-30-68-68-68ZM218 146c0-30 25-54 55-54s54 24 54 54-24 55-54 55-55-25-55-55Z" fill="#3b82f6"/>
  <circle cx="95" cy="314" r="32" fill="#fff"/>
  <circle cx="326" cy="314" r="32" fill="#fff"/>
  <path d="M292 214h58c22 0 42 8 57 22l18 18-22 21-18-17c-9-9-21-14-35-14h-58v-30Z" fill="#38bdf8"/>
  <path d="M190 180h59l55 113h-34l-19-39h-86l25-40-19-34h-51l19-30h52Z" fill="#f97316"/>
  <text x="256" y="456" text-anchor="middle" font-family="Arial, sans-serif" font-size="52" font-weight="700" fill="#fff">RIDER</text>
</svg>
